<svg width="48" height="48" viewBox="0 0 48 48" fill="none" xmlns="http://www.w3.org/2000/svg">
<path d="M47.9859 29.5721C47.9419 28.9471 47.7713 28.3369 47.4839 27.7768C47.1964 27.2168 46.798 26.718 46.3116 26.3095L41.0428 21.8619L38.0168 25.282L43.2855 29.7296C43.338 29.7732 43.3711 29.8351 43.3777 29.9021C43.3811 29.9698 43.3593 30.0364 43.3162 30.0896L40.4822 33.2847C40.4468 33.3265 40.3987 33.3563 40.3449 33.3698C40.2911 33.3832 40.2343 33.3797 40.1826 33.3597L21.4117 25.957C20.466 25.5824 19.4238 25.5068 18.4318 25.7409C17.4398 25.975 16.548 26.507 15.8818 27.262L12.8711 30.6596L16.3734 33.6147L19.3841 30.2096C19.4202 30.1688 19.4687 30.1402 19.5226 30.1281C19.5764 30.1159 19.6328 30.1209 19.6836 30.1421L38.4545 37.5448C39.3986 37.9218 40.4404 37.9986 41.4318 37.7643C42.4231 37.5301 43.3137 36.9966 43.9767 36.2397L46.8108 33.0372C47.2326 32.5648 47.5537 32.015 47.7555 31.4201C47.9572 30.8252 48.0356 30.1969 47.9859 29.5721Z" fill="white"/>
<path d="M31.2576 24.8913C31.9526 25.4814 32.8428 25.8059 33.7637 25.8048C33.8582 25.8048 33.9534 25.8048 34.0487 25.7951C34.5522 25.7605 35.0438 25.6286 35.4948 25.4072C35.9458 25.1857 36.3473 24.8791 36.6761 24.505L40.0601 20.68C40.7251 19.9267 41.0568 18.9465 40.9825 17.9546C40.9082 16.9627 40.4339 16.0401 39.6638 15.3894L22.5027 0.911815C21.732 0.261929 20.7286 -0.0624624 19.7131 0.00997096C18.6975 0.0824043 17.753 0.545732 17.0872 1.29807L13.7033 5.12315C13.0386 5.87686 12.7071 6.85717 12.7814 7.84919C12.8556 8.8412 13.3297 9.76399 14.0996 10.4153L31.2576 24.8913ZM10.8945 30.9747C10.8183 30.9101 10.7299 30.8608 10.6342 30.8296C10.5385 30.7984 10.4374 30.786 10.3368 30.7929C10.2361 30.7999 10.1379 30.8261 10.0476 30.8702C9.95739 30.9142 9.87692 30.9752 9.81082 31.0497L1.06283 40.9409C0.515968 41.5593 0.162349 42.3181 0.0439714 43.127C-0.0744064 43.9359 0.0474302 44.761 0.395013 45.5043C0.742596 46.2476 1.30132 46.8778 2.00484 47.3202C2.70836 47.7626 3.52711 47.9985 4.36387 48C4.4714 48 4.58046 47.9963 4.68876 47.988C5.26179 47.949 5.82118 47.7992 6.33446 47.5474C6.84774 47.2956 7.30467 46.9467 7.67874 46.521L16.4275 36.6313C16.5608 36.4811 16.6276 36.2853 16.6132 36.087C16.5988 35.8887 16.5044 35.7041 16.3507 35.5738L10.8945 30.9747Z" fill="white"/>
</svg>
