<svg width="48" height="48" viewBox="0 0 48 48" fill="none" xmlns="http://www.w3.org/2000/svg">
<path d="M47.9985 37.5723C47.9985 35.6798 47.2613 33.9004 45.9242 32.5633L39.4359 26.075C38.0971 24.7362 36.316 23.9991 34.4218 23.9991C32.5276 23.9991 30.7482 24.7362 29.4111 26.0733L28.9552 26.5327L26.9238 24.5014C26.7657 24.3376 26.5765 24.207 26.3674 24.1172C26.1582 24.0274 25.9333 23.9801 25.7057 23.9781C25.4781 23.9761 25.2523 24.0195 25.0417 24.1057C24.831 24.1919 24.6396 24.3192 24.4786 24.4801C24.3177 24.6411 24.1904 24.8325 24.1042 25.0431C24.018 25.2538 23.9746 25.4795 23.9766 25.7071C23.9786 25.9348 24.0259 26.1597 24.1157 26.3688C24.2056 26.578 24.3362 26.7671 24.4999 26.9253L45.0706 47.4959C45.2294 47.6557 45.4182 47.7824 45.6262 47.8689C45.8342 47.9555 46.0573 48 46.2825 48C46.5078 48 46.7308 47.9555 46.9388 47.8689C47.1468 47.7824 47.3356 47.6557 47.4945 47.4959C47.8158 47.1745 47.9964 46.7385 47.9964 46.284C47.9964 45.8294 47.8158 45.3935 47.4945 45.072L45.4631 43.0407L45.9208 42.5847C46.5812 41.928 47.1049 41.1469 47.4615 40.2865C47.8181 39.4262 48.0006 38.5036 47.9985 37.5723ZM31.3808 28.9566L31.8368 28.4989C33.2201 27.1155 35.6286 27.1173 37.012 28.4989L43.4986 34.9873C44.1834 35.674 44.568 36.6042 44.568 37.574C44.568 38.5438 44.1834 39.4741 43.4986 40.1608L43.0409 40.6168L31.3808 28.9566Z" fill="white"/>
<path d="M46.284 0H1.71422C1.25958 0 0.823563 0.180605 0.502084 0.502084C0.180605 0.823563 0 1.25958 0 1.71422V46.284C0 46.7386 0.180605 47.1747 0.502084 47.4961C0.823563 47.8176 1.25958 47.9982 1.71422 47.9982H39.4271C39.8818 47.9982 40.3178 47.8176 40.6393 47.4961C40.9607 47.1747 41.1413 46.7386 41.1413 46.284C41.1413 45.8294 40.9607 45.3933 40.6393 45.0719C40.3178 44.7504 39.8818 44.5698 39.4271 44.5698H25.7133V30.856C25.7133 30.4014 25.5327 29.9653 25.2113 29.6439C24.8898 29.3224 24.4538 29.1418 23.9991 29.1418C23.5445 29.1418 23.1085 29.3224 22.787 29.6439C22.4655 29.9653 22.2849 30.4014 22.2849 30.856V44.5698H3.42844V25.7133H20.5707C21.0253 25.7133 21.4613 25.5327 21.7828 25.2113C22.1043 24.8898 22.2849 24.4538 22.2849 23.9991C22.2849 23.5445 22.1043 23.1085 21.7828 22.787C21.4613 22.4655 21.0253 22.2849 20.5707 22.2849H3.42844V3.42844H22.2849V20.5707C22.2849 21.0253 22.4655 21.4613 22.787 21.7828C23.1085 22.1043 23.5445 22.2849 23.9991 22.2849C24.4538 22.2849 24.8898 22.1043 25.2113 21.7828C25.5327 21.4613 25.7133 21.0253 25.7133 20.5707V3.42844H44.5698V22.2849H41.1413C40.6867 22.2849 40.2507 22.4655 39.9292 22.787C39.6077 23.1085 39.4271 23.5445 39.4271 23.9991C39.4271 24.4538 39.6077 24.8898 39.9292 25.2113C40.2507 25.5327 40.6867 25.7133 41.1413 25.7133H44.5698V29.1418C44.5698 29.5964 44.7504 30.0324 45.0719 30.3539C45.3933 30.6754 45.8294 30.856 46.284 30.856C46.7386 30.856 47.1747 30.6754 47.4961 30.3539C47.8176 30.0324 47.9982 29.5964 47.9982 29.1418V1.71422C47.9982 1.25958 47.8176 0.823563 47.4961 0.502084C47.1747 0.180605 46.7386 0 46.284 0Z" fill="white"/>
</svg>
