<svg width="42" height="48" viewBox="0 0 42 48" fill="none" xmlns="http://www.w3.org/2000/svg">
<path d="M14.6286 24.2759C16.1578 22.7712 17.1262 20.6646 17.1262 18.3072C17.1262 17.4545 16.8714 16.5016 16.4636 15.4984C16.0049 14.4451 15.3932 13.3919 14.6796 12.2884C14.6796 12.2382 14.6286 12.2382 14.6286 12.1881C13.1505 9.98119 11.2136 7.82445 9.58252 5.96865L8.56311 4.81505L7.54369 5.96865C4.3835 9.57994 0 14.5455 0 18.3072C0 20.6144 0.968447 22.721 2.49757 24.2759C4.0267 25.7806 6.16748 26.7335 8.56311 26.7335C10.9078 26.7335 13.0485 25.7806 14.6286 24.2759ZM37.5146 0.30094L37.2597 0L37.0049 0.30094C35.1189 2.45768 32.5194 5.41693 32.5194 7.52351C32.5194 8.82759 33.0291 9.98119 33.8956 10.8339C34.7621 11.6865 35.9345 12.1881 37.2597 12.1881C38.5849 12.1881 39.7573 11.6865 40.6238 10.8339C41.4903 9.98119 42 8.82759 42 7.52351C42 5.41693 39.4005 2.45768 37.5146 0.30094Z" fill="white"/>
<path d="M21.1529 7.27271C20.3884 8.17553 19.5218 9.1285 18.6553 10.1818L17.3301 11.6865C17.9417 12.6395 18.4515 13.5925 18.8592 14.5454C19.4199 15.8495 19.7257 17.1034 19.7257 18.3072C19.7257 21.3166 18.5024 24.0752 16.4636 26.0815C14.4248 28.0878 11.6723 29.2915 8.56311 29.2915C7.84951 29.2915 7.18689 29.2414 6.52427 29.0909C6.26942 29.0407 6.06553 28.9906 5.81068 28.9404L5.50485 30.1442C5.35194 30.8965 5.25 31.5987 5.25 32.3511C5.25 36.6646 7.03398 40.5768 9.88835 43.4357C12.7937 46.2947 16.7694 48 21.1529 48C25.5364 48 29.5121 46.2445 32.4175 43.4357C35.3228 40.6269 37.0558 36.6646 37.0558 32.3511C37.0558 25.4796 29.2573 16.652 23.6505 10.232C22.784 9.1285 21.9684 8.17553 21.1529 7.27271Z" fill="white"/>
</svg>
