<svg width="48" height="48" viewBox="0 0 48 48" fill="none" xmlns="http://www.w3.org/2000/svg">
<path d="M43.091 25.0347C43.3923 24.6017 43.6028 24.0917 43.6329 23.4738C43.7778 20.3704 40.1541 14.5632 34.6152 9.02343C29.1338 3.54222 23.5247 0 20.2973 0C19.2257 0.0149318 18.5866 0.438955 18.2415 0.785148C18.237 0.789648 15.3286 4.38689 15.3286 4.38689C9.8959 4.62836 2.18944 8.46921 2.18944 14.1819C2.18944 15.7032 2.73272 17.0561 3.80638 18.2025C4.1046 18.5218 4.45663 18.8188 4.83667 19.1027C4.85355 19.1167 5.75181 19.7025 5.76807 19.7109C8.60225 21.3522 12.4123 21.8183 14.1875 21.8183C17.1827 21.8183 19.3599 21.7373 22.2103 20.6559C22.7663 20.4471 23.4118 20.7464 23.6142 21.2898C23.6658 21.4235 23.6904 21.566 23.6863 21.7092C23.6823 21.8525 23.6498 21.9934 23.5907 22.124C23.5322 22.2551 23.4482 22.3733 23.3436 22.4717C23.239 22.57 23.1159 22.6467 22.9815 22.6971C19.7924 23.9063 17.3255 24.0001 14.1875 24.0001C11.0494 24.0001 6.58012 23.1573 3.44423 20.7923C2.97766 20.4386 2.31094 20.5185 1.9402 20.9787L0.696158 22.5288C0.402124 22.8238 0.0421239 23.3597 0.00377157 24.2322C-0.119774 26.8657 2.80093 31.565 7.43859 36.2034C11.9592 40.7247 16.5926 43.6448 19.2406 43.6448H19.3066C20.244 43.6267 20.8085 43.2528 21.028 43.0227L42.5038 25.6885C42.5102 25.6842 43.0376 25.1667 43.091 25.0347ZM5.39171 16.7018C4.70566 15.965 4.37092 15.1407 4.37092 14.1819C4.37092 10.5763 9.1444 7.71536 13.3548 6.83326L5.39171 16.7018ZM29.5663 14.0731C25.8361 10.3434 23.7143 7.22404 22.6577 5.21059C24.7625 6.309 27.9431 8.52168 31.5305 12.1087C35.2416 15.8214 37.359 18.9503 38.4114 20.9681C36.3173 19.8697 33.1495 17.658 29.5663 14.0731ZM43.4425 33.1982C43.0377 32.6079 42.0533 32.6079 41.6484 33.1982C40.8877 34.2997 37.0909 39.9279 37.0909 42.5455C37.0909 45.5529 39.5369 48 42.5454 48C45.5539 48 47.9999 45.5529 47.9999 42.5455C48 39.9279 44.2031 34.2997 43.4425 33.1982Z" fill="white"/>
</svg>
