<svg width="48" height="48" viewBox="0 0 48 48" fill="black" xmlns="http://www.w3.org/2000/svg">
<path d="M33.8673 17.4069C34.1668 15.9963 34.3342 14.5944 34.4246 13.5754C33.4057 13.6659 32.0037 13.8333 30.5932 14.1328C30.8602 15.0234 31.0312 15.9693 31.0312 16.9688C32.0308 16.9688 32.9767 17.1398 33.8673 17.4069ZM36.3107 25.4063H25.4062V36.3108C27.0396 35.5345 28.2188 33.4728 28.2188 31.0313C28.2188 30.1218 28.0425 29.549 27.7326 27.7326C29.5452 28.0418 30.1209 28.2188 31.0312 28.2188C33.4728 28.2188 35.5344 27.0396 36.3107 25.4063Z" fill="black"/>
<path d="M30.5932 33.8673C32.0037 34.1668 33.4057 34.3342 34.4246 34.4246C34.3342 33.4057 34.167 32.0035 33.8673 30.5932C32.9767 30.8603 32.0308 31.0312 31.0312 31.0312C31.0312 32.0308 30.8603 32.9767 30.5932 33.8673ZM25.4062 11.6893V22.5938H36.3107C35.5344 20.9604 33.4728 19.7812 31.0312 19.7812C30.1218 19.7812 29.549 19.9575 27.7326 20.2674C28.0417 18.4548 28.2188 17.8789 28.2188 16.9688C28.2188 14.5272 27.0396 12.4656 25.4062 11.6893ZM11.5394 18.6631C10.7755 15.4947 10.6661 12.2589 10.6612 12.1088L10.6186 10.6187L12.1087 10.6613C12.2588 10.6662 15.4947 10.7755 18.663 11.5395C19.6642 10.1248 21.0227 9.08625 22.5937 8.70197V0H11.3438V1.40625C11.3438 6.83353 6.92728 11.3438 1.5 11.3438H0V22.5938H8.70187C9.08625 21.0227 10.1248 19.6642 11.5394 18.6631Z" fill="black"/>
<path d="M36.4605 29.3369C37.2244 32.5053 37.3338 35.7411 37.3388 35.8912L37.3813 37.3813L35.8913 37.3387C35.7411 37.3338 32.5052 37.2245 29.3369 36.4605C28.3358 37.8752 26.9772 38.9137 25.4062 39.298V48H36.6563V46.5938C36.6563 41.1665 41.1665 36.6562 46.5938 36.6562H48V25.4062H39.2981C38.9137 26.9773 37.8751 28.3358 36.4605 29.3369Z" fill="black"/>
<path d="M39.4688 46.5938V48H48V39.4688H46.5938C42.7169 39.4688 39.4688 42.7169 39.4688 46.5938ZM8.53125 1.40625V0H0V8.53125H1.5C5.37684 8.53125 8.53125 5.28309 8.53125 1.40625ZM11.6893 22.5938H22.5938V11.6893C20.9604 12.4656 19.7812 14.5272 19.7812 16.9688C19.7812 17.878 19.9575 18.451 20.2674 20.2674C18.4548 19.9581 17.8791 19.7812 16.9688 19.7812C14.5272 19.7812 12.4656 20.9604 11.6893 22.5938ZM36.6562 1.40625V0H25.4062V8.70187C26.9773 9.08625 28.3358 10.1248 29.3369 11.5394C32.5053 10.7755 35.7411 10.6661 35.8913 10.6612L37.3813 10.6186L37.3387 12.1087C37.3338 12.2588 37.2245 15.4947 36.4605 18.663C37.8752 19.6642 38.9137 21.0227 39.298 22.5937H48V11.3438H46.5938C41.1665 11.3438 36.6562 6.83353 36.6562 1.40625Z" fill="black"/>
<path d="M39.4688 1.40625C39.4688 5.28309 42.7169 8.53125 46.5938 8.53125H48V0H39.4688V1.40625ZM11.3438 46.5938V48H22.5938V39.2981C21.0227 38.9137 19.6642 37.8752 18.6631 36.4606C15.4947 37.2245 12.2589 37.3339 12.1088 37.3388L10.6187 37.3814L10.6613 35.8913C10.6662 35.7412 10.7755 32.5053 11.5395 29.337C10.1248 28.3358 9.08625 26.9773 8.70187 25.4062H0V36.6562H1.5C6.92728 36.6562 11.3438 41.1665 11.3438 46.5938ZM22.5938 36.3107V25.4062H11.6893C12.4656 27.0396 14.5272 28.2188 16.9688 28.2188C17.8782 28.2188 18.451 28.0425 20.2674 27.7326C19.9583 29.5452 19.7812 30.1209 19.7812 31.0312C19.7812 33.4728 20.9604 35.5344 22.5938 36.3107Z" fill="black"/>
<path d="M14.1327 30.5932C13.833 32.0036 13.6658 33.4057 13.5754 34.4247C14.5943 34.3342 15.9965 34.1671 17.4068 33.8673C17.1398 32.9767 16.9688 32.0309 16.9688 31.0313C15.9692 31.0313 15.0233 30.8603 14.1327 30.5932ZM17.4068 14.1328C15.9965 13.8331 14.5943 13.6659 13.5754 13.5754C13.6658 14.5944 13.8332 15.9963 14.1327 17.4069C15.0233 17.1398 15.9692 16.9688 16.9688 16.9688C16.9688 15.9693 17.1398 15.0234 17.4068 14.1328ZM8.53125 46.5938C8.53125 42.717 5.37684 39.4688 1.5 39.4688H0V48.0001H8.53125V46.5938Z" fill="black"/>
</svg>
