<svg width="46" height="48" viewBox="0 0 46 48" fill="none" xmlns="http://www.w3.org/2000/svg">
<path d="M15.4687 30.9375H14.0625V18.2812C14.0625 17.4938 13.4437 16.875 12.6562 16.875C11.8687 16.875 11.25 17.4938 11.25 18.2812V30.9375H9.84375C9.06656 30.9375 8.4375 31.5666 8.4375 32.3438V43.7812C8.4375 46.1072 10.3303 48 12.6562 48C14.9822 48 16.875 46.1072 16.875 43.7812V32.3438C16.875 31.5666 16.2459 30.9375 15.4687 30.9375Z" fill="white"/>
<path d="M24.975 22.2469L16.5375 2.55937C15.8625 1.0125 14.3437 0 12.6562 0C10.9687 0 9.45 1.0125 8.775 2.55937L0.3375 22.2469C0.1125 22.7812 0 23.3438 0 23.9062C0 26.2406 1.88437 28.125 4.21875 28.125H8.4375V18.2812C8.4375 15.955 10.33 14.0625 12.6562 14.0625C14.9825 14.0625 16.875 15.955 16.875 18.2812V28.125H21.0937C23.4281 28.125 25.3125 26.2406 25.3125 23.9062C25.3125 23.3438 25.2 22.7812 24.975 22.2469ZM31.8933 11.596C34.8472 11.8885 37.6737 12.4338 40.5 13.2152C42.7055 13.8291 44.9811 12.6329 45.6896 10.5057C46.4343 8.26022 45.2042 5.76722 42.8827 5.121C35.4397 3.04575 27.6443 2.43928 19.9131 3.30188L27.5565 21.1376C27.763 21.6169 27.9015 22.1168 27.9958 22.6269C29.3451 22.6688 30.6928 22.7574 32.028 22.9298C34.0684 23.2046 36.0699 22.0085 36.6766 19.9826C37.4254 17.4876 35.7471 14.9078 33.1403 14.5691C32.6346 14.5022 32.1278 14.4436 31.6201 14.3933C30.7527 14.3068 30.2015 13.4365 30.4514 12.6081C30.6463 11.9572 31.2629 11.5466 31.8933 11.596Z" fill="white"/>
</svg>
