<svg width="48" height="48" viewBox="0 0 48 48" fill="none" xmlns="http://www.w3.org/2000/svg">
<path d="M46.6153 48H1.38469C0.619969 48 0 47.339 0 46.523V37.7647C0 36.9491 0.619969 36.2877 1.38469 36.2877C3.69844 36.2877 4.9395 37.1956 5.93663 37.9253C6.82538 38.5752 7.46738 39.0447 8.92275 39.0447C10.3784 39.0447 11.0204 38.5752 11.9088 37.9253C12.9064 37.1956 14.1475 36.2878 16.4612 36.2878C18.7749 36.2878 20.016 37.1956 21.0136 37.9253C21.902 38.5752 22.544 39.0447 23.9993 39.0447C25.455 39.0447 26.0969 38.5752 26.9857 37.9253C27.9829 37.1956 29.224 36.2878 31.5377 36.2878C33.8518 36.2878 35.0929 37.1956 36.0905 37.9253C36.9788 38.5752 37.6208 39.0447 39.0765 39.0447C40.5322 39.0447 41.1746 38.5752 42.063 37.9253C43.0605 37.1956 44.3017 36.2878 46.6153 36.2878C47.38 36.2878 48 36.9491 48 37.7648V46.523C48 47.339 47.38 48 46.6153 48ZM10.1081 32.7902C9.3435 32.7902 8.72344 32.1289 8.72344 31.3132C8.72344 29.113 10.0301 27.9946 10.9841 27.1778C11.8729 26.4165 12.2091 26.0618 12.2091 25.3459C12.2091 24.6299 11.873 24.2748 10.9841 23.5139C10.0301 22.6971 8.72353 21.5784 8.72353 19.378C8.72353 17.1781 10.0301 16.0594 10.9841 15.243C11.8729 14.4816 12.2091 14.1266 12.2091 13.4111C12.2091 12.6951 11.873 12.3403 10.9841 11.5794C10.0301 10.7626 8.72353 9.64426 8.72353 7.44391C8.72353 5.24357 10.0301 4.1253 10.9841 3.30852C11.8729 2.54754 12.2091 2.19255 12.2091 1.47696C12.2091 0.661284 12.8291 0 13.5938 0C14.3584 0 14.9784 0.661284 14.9784 1.47696C14.9784 3.67721 13.6714 4.79558 12.7174 5.61236C11.8286 6.37284 11.4928 6.72793 11.4928 7.44391C11.4928 8.1596 11.8286 8.51459 12.7174 9.27557C13.6714 10.0923 14.9784 11.2106 14.9784 13.411C14.9784 15.6113 13.6714 16.7297 12.7174 17.5465C11.8286 18.3074 11.4928 18.6624 11.4928 19.378C11.4928 20.094 11.8286 20.4495 12.7174 21.21C13.6714 22.0267 14.9784 23.1455 14.9784 25.3459C14.9784 27.5462 13.6717 28.6645 12.7174 29.4813C11.8286 30.2422 11.4928 30.5972 11.4928 31.3132C11.4928 32.1292 10.8728 32.7902 10.1081 32.7902ZM18.2077 32.7902C17.443 32.7902 16.823 32.1289 16.823 31.3132C16.823 29.113 18.1297 27.9946 19.0837 27.1778C19.9728 26.4165 20.3086 26.0618 20.3086 25.3459C20.3086 24.6299 19.9728 24.2748 19.0837 23.5139C18.1297 22.6971 16.823 21.5784 16.823 19.378C16.823 17.1781 18.1297 16.0594 19.0837 15.243C19.9728 14.4816 20.3086 14.1266 20.3086 13.4111C20.3086 12.6951 19.9728 12.3403 19.0839 11.5794C18.1296 10.7626 16.823 9.64426 16.823 7.44391C16.823 5.24357 18.1297 4.1253 19.084 3.30852C19.9728 2.54754 20.3086 2.19255 20.3086 1.47696C20.3086 0.661284 20.9286 0 21.6933 0C22.458 0 23.078 0.661284 23.078 1.47696C23.078 3.67721 21.7713 4.79558 20.8169 5.61236C19.9282 6.37284 19.5922 6.72793 19.5922 7.44391C19.5922 8.1596 19.9281 8.51459 20.8169 9.27557C21.7713 10.0923 23.0779 11.2106 23.0779 13.411C23.0779 15.6113 21.7713 16.7297 20.8169 17.5465C19.9282 18.3074 19.5922 18.6624 19.5922 19.378C19.5922 20.094 19.9281 20.4495 20.8173 21.21C21.7713 22.0267 23.0779 23.1455 23.0779 25.3459C23.0779 27.5462 21.7713 28.6645 20.8173 29.4813C19.9281 30.2422 19.5922 30.5972 19.5922 31.3132C19.5922 32.1292 18.9724 32.7902 18.2077 32.7902ZM26.3075 32.7902C25.5428 32.7902 24.9228 32.1289 24.9228 31.3132C24.9228 29.113 26.2295 27.9946 27.1835 27.1778C28.0722 26.4165 28.4084 26.0618 28.4084 25.3459C28.4084 24.6299 28.0723 24.2748 27.1835 23.5139C26.2295 22.6971 24.9229 21.5784 24.9229 19.378C24.9229 17.1781 26.2295 16.0594 27.1835 15.243C28.0722 14.4816 28.4084 14.1266 28.4084 13.4111C28.4084 12.6951 28.0723 12.3403 27.1835 11.5794C26.2295 10.7626 24.9229 9.64426 24.9229 7.44391C24.9229 5.24357 26.2295 4.1253 27.1835 3.30852C28.0722 2.54754 28.4084 2.19255 28.4084 1.47696C28.4084 0.661284 29.0285 0 29.7931 0C30.5577 0 31.1778 0.661284 31.1778 1.47696C31.1778 3.67721 29.8707 4.79558 28.9167 5.61236C28.028 6.37284 27.6922 6.72793 27.6922 7.44391C27.6922 8.1596 28.028 8.51459 28.9167 9.27557C29.8707 10.0923 31.1778 11.2106 31.1778 13.411C31.1778 15.6113 29.8707 16.7297 28.9167 17.5465C28.028 18.3074 27.6922 18.6624 27.6922 19.378C27.6922 20.094 28.028 20.4495 28.9167 21.21C29.8707 22.0267 31.1778 23.1455 31.1778 25.3459C31.1778 27.5462 29.8711 28.6645 28.9167 29.4813C28.028 30.2422 27.6922 30.5972 27.6922 31.3132C27.6922 32.1292 27.0722 32.7902 26.3075 32.7902ZM34.407 32.7902C33.6424 32.7902 33.0223 32.1289 33.0223 31.3132C33.0223 29.113 34.329 27.9946 35.283 27.1778C36.1721 26.4165 36.5079 26.0618 36.5079 25.3459C36.5079 24.6299 36.1721 24.2748 35.283 23.5139C34.329 22.6971 33.0223 21.5784 33.0223 19.378C33.0223 17.1781 34.329 16.0594 35.283 15.243C36.1721 14.4816 36.5079 14.1266 36.5079 13.4111C36.5079 12.6951 36.1721 12.3403 35.2833 11.5794C34.3289 10.7626 33.0227 9.64426 33.0227 7.44391C33.0227 5.24357 34.3294 4.1253 35.2833 3.30852C36.172 2.54754 36.5079 2.19295 36.5079 1.47696C36.5079 0.661284 37.1279 0 37.8926 0C38.6573 0 39.2772 0.661284 39.2772 1.47696C39.2772 3.67721 37.9706 4.79558 37.0166 5.61236C36.1279 6.37284 35.792 6.72793 35.792 7.44391C35.792 8.1596 36.1278 8.51459 37.0166 9.27557C37.9706 10.0923 39.2772 11.2106 39.2772 13.411C39.2772 15.6113 37.9706 16.7297 37.0166 17.5465C36.1279 18.3074 35.792 18.6624 35.792 19.378C35.792 20.094 36.1278 20.4495 37.0166 21.21C37.971 22.0267 39.2772 23.1455 39.2772 25.3459C39.2772 27.5462 37.9709 28.6645 37.0166 29.4813C36.1279 30.2422 35.792 30.5972 35.792 31.3132C35.7916 32.1292 35.1716 32.7902 34.407 32.7902Z" fill="white"/>
</svg>
