<svg width="48" height="48" viewBox="0 0 48 48" fill="none" xmlns="http://www.w3.org/2000/svg">
<path d="M38.5155 8.13245C37.2923 8.13245 36.2971 9.13016 36.2971 10.3566V37.6579C36.409 40.6094 40.6312 40.5988 40.7423 37.6579V10.3566C40.7423 9.13026 39.7434 8.13245 38.5155 8.13245ZM24 8.13245C22.7721 8.13245 21.7732 9.13016 21.7732 10.3566V37.6579C21.8854 40.6053 26.1157 40.6029 26.2269 37.6579V10.3566C26.2269 9.13026 25.2279 8.13245 24 8.13245ZM31.2577 16.2649C30.0345 16.2649 29.0394 17.2626 29.0394 18.4891V29.5255C29.1514 32.4772 33.3734 32.4662 33.4846 29.5255V18.4891C33.4846 17.2626 32.4856 16.2649 31.2577 16.2649ZM45.7732 20.3312C44.55 20.3312 43.5548 21.3289 43.5548 22.5554V25.4593C43.6668 28.4109 47.8888 28.4001 48 25.4593V22.5554C48 21.3289 47.0011 20.3312 45.7732 20.3312ZM2.22694 20.3312C0.999 20.3312 0 21.3289 0 22.5553V25.4592C0.112312 28.4022 4.33434 28.4086 4.44516 25.4592V22.5553C4.44516 21.3289 3.45009 20.3312 2.22694 20.3312ZM9.48459 12.1987C8.25666 12.1987 7.25766 13.1964 7.25766 14.4228V33.5917C7.36997 36.5348 11.5921 36.541 11.703 33.5917V14.4228C11.703 13.1964 10.7078 12.1987 9.48459 12.1987ZM16.7423 0C15.5144 0 14.5155 0.997708 14.5155 2.22414V45.7904C14.6277 48.7334 18.8497 48.7397 18.9607 45.7904V2.22414C18.9607 0.997708 17.9655 0 16.7423 0Z" fill="white"/>
</svg>
