<svg width="48" height="44" viewBox="0 0 48 44" fill="none" xmlns="http://www.w3.org/2000/svg">
<path fill-rule="evenodd" clip-rule="evenodd" d="M3.73445 18.0317L3.05633 17.1585C2.77577 16.8134 2.36934 16.5903 1.92401 16.5369C1.47868 16.4835 1.02985 16.6041 0.673563 16.8728C0.317277 17.1415 0.0818494 17.537 0.0176672 17.9747C-0.046515 18.4123 0.0656472 18.8574 0.330149 19.2146L3.61942 23.457C3.75807 23.6357 3.93147 23.7854 4.12949 23.8973C4.3275 24.0091 4.54616 24.0809 4.77267 24.1085C4.99917 24.1361 5.22898 24.1189 5.44866 24.0578C5.66833 23.9968 5.87346 23.8933 6.05205 23.7532L10.1499 20.5379C10.4825 20.2511 10.6902 19.8491 10.7299 19.4153C10.7696 18.9815 10.6383 18.5493 10.3632 18.2084C10.0881 17.8676 9.69042 17.6442 9.25268 17.5849C8.81495 17.5255 8.37083 17.6346 8.01257 17.8895L7.12158 18.5884C7.61982 15.9361 8.69816 13.4225 10.2816 11.2225C11.865 9.02253 13.9156 7.1889 16.2907 5.84914C25.3328 0.740233 36.883 3.83029 42.0658 12.7434C47.2487 21.6565 44.1139 33.042 35.0718 38.1509C26.0298 43.2598 14.4812 40.1697 9.2984 31.2566C9.18624 31.0637 9.03664 30.8945 8.85813 30.7586C8.67963 30.6227 8.47571 30.5228 8.25803 30.4646C8.04035 30.4063 7.81317 30.3909 7.58946 30.4193C7.36574 30.4476 7.14988 30.5191 6.95419 30.6296C6.75851 30.7402 6.58683 30.8877 6.44896 31.0636C6.31109 31.2396 6.20973 31.4406 6.15067 31.6552C6.0916 31.8698 6.07599 32.0937 6.10473 32.3142C6.13346 32.5347 6.20598 32.7475 6.31814 32.9404C12.4435 43.473 26.0933 47.1249 36.78 41.0869C47.4667 35.049 51.1697 21.5939 45.0444 11.0596C38.9191 0.527009 25.271 -3.12487 14.5842 2.91309C11.7676 4.50174 9.33711 6.67796 7.46297 9.28946C5.58884 11.901 4.31631 14.8846 3.73445 18.0317ZM25.7276 8.46198C18.1482 8.46198 11.9937 14.5287 11.9937 22C11.9937 29.4713 18.1482 35.538 25.7276 35.538C33.307 35.538 39.4615 29.4713 39.4615 22C39.4615 14.5287 33.307 8.46198 25.7276 8.46198ZM24.0109 15.231V23.6923C24.0108 23.9708 24.0805 24.245 24.2138 24.4906C24.3471 24.7362 24.5398 24.9456 24.7748 25.1002L29.925 28.4847C30.1126 28.6081 30.323 28.6938 30.5442 28.737C30.7653 28.7801 30.993 28.78 31.2141 28.7364C31.4352 28.6929 31.6454 28.6069 31.8328 28.4833C32.0202 28.3596 32.181 28.2009 32.3062 28.016C32.4313 27.8311 32.5182 27.6237 32.5621 27.4057C32.6059 27.1876 32.6057 26.9632 32.5615 26.7453C32.5174 26.5273 32.4301 26.3201 32.3047 26.1354C32.1793 25.9507 32.0182 25.7921 31.8306 25.6688L27.4444 22.7869V15.231C27.4444 14.7822 27.2635 14.3517 26.9415 14.0344C26.6196 13.717 26.1829 13.5387 25.7276 13.5387C25.2723 13.5387 24.8356 13.717 24.5137 14.0344C24.1917 14.3517 24.0109 14.7822 24.0109 15.231Z" fill="white"/>
</svg>
