<svg width="48" height="48" viewBox="0 0 48 48" fill="none" xmlns="http://www.w3.org/2000/svg">
<path d="M38.0625 19.7812H25.4063V31.0312H42.8255L39.3959 20.7426C39.3029 20.4625 39.124 20.219 38.8846 20.0464C38.6452 19.8738 38.3576 19.7811 38.0625 19.7812ZM8.60413 20.7426L5.17457 31.0312H22.5938V19.7812H9.93754C9.64246 19.7811 9.35482 19.8738 9.11547 20.0464C8.87611 20.219 8.6972 20.4625 8.60413 20.7426ZM43.763 33.8438H25.4063V48H46.5938C47.0453 48 47.4698 47.7829 47.7349 47.4162C47.8652 47.2353 47.9505 47.026 47.984 46.8055C48.0174 46.5851 47.9979 46.3599 47.9271 46.1484L43.763 33.8438ZM0.0728787 46.1488C-0.0714026 46.5769 0.00153492 47.0493 0.26516 47.4163C0.395656 47.5969 0.567129 47.744 0.765497 47.8454C0.963866 47.9469 1.18347 47.9999 1.40628 48H22.5938V33.8438H4.23707L0.0728787 46.1488ZM21.1875 8.53125C18.8613 8.53125 16.9688 6.63863 16.9688 4.3125C16.9688 3.53531 16.34 2.90625 15.5625 2.90625C14.7853 2.90625 14.1563 3.53531 14.1563 4.3125C14.1563 6.63872 12.264 8.53125 9.93754 8.53125C9.16035 8.53125 8.53129 9.16003 8.53129 9.9375C8.53129 10.7147 9.16035 11.3438 9.93754 11.3438C12.264 11.3438 14.1563 13.2364 14.1563 15.5625C14.1563 16.3397 14.7853 16.9688 15.5625 16.9688C16.34 16.9688 16.9688 16.3397 16.9688 15.5625C16.9688 13.2363 18.8614 11.3438 21.1875 11.3438C21.965 11.3438 22.5938 10.7147 22.5938 9.9375C22.5938 9.16003 21.965 8.53125 21.1875 8.53125ZM38.0625 5.71875C35.7363 5.71875 33.8438 3.73238 33.8438 1.40625C33.8438 0.629063 33.2147 0 32.4375 0C31.6601 0 31.0313 0.629063 31.0313 1.40625C31.0313 3.73247 29.1387 5.71875 26.8125 5.71875C26.0353 5.71875 25.4063 6.34753 25.4063 7.125C25.4063 7.90219 26.0353 8.53125 26.8125 8.53125C29.1388 8.53125 31.0313 10.4239 31.0313 12.75C31.0313 13.5272 31.6601 14.1562 32.4375 14.1562C33.2147 14.1562 33.8438 13.5272 33.8438 12.75C33.8438 10.4238 35.7364 8.53125 38.0625 8.53125C38.8397 8.53125 39.4688 7.90219 39.4688 7.125C39.4688 6.34753 38.8397 5.71875 38.0625 5.71875Z" fill="white"/>
</svg>
