<svg width="120" height="120" viewBox="0 0 120 120" fill="none" xmlns="http://www.w3.org/2000/svg">
<path d="M84.6682 43.5173C85.417 39.9909 85.8354 36.486 86.0616 33.9386C83.5141 34.1648 80.0093 34.5831 76.4829 35.332C77.1506 37.5585 77.5781 39.9231 77.5781 42.422C80.077 42.422 82.4416 42.8495 84.6682 43.5173ZM90.7767 63.5158H63.5156V90.7769C67.5989 88.8363 70.5469 83.6821 70.5469 77.5783C70.5469 75.3046 70.1062 73.8726 69.3314 69.3316C73.863 70.1045 75.3023 70.547 77.5781 70.547C83.682 70.547 88.8361 67.5991 90.7767 63.5158Z" fill="white"/>
<path d="M76.4829 84.6682C80.0093 85.417 83.5141 85.8354 86.0616 86.0616C85.8354 83.5141 85.4175 80.0088 84.6682 76.4829C82.4416 77.1506 80.077 77.5781 77.5781 77.5781C77.5781 80.077 77.1506 82.4416 76.4829 84.6682ZM63.5156 29.2233V56.4844H90.7767C88.8361 52.4011 83.682 49.4531 77.5781 49.4531C75.3045 49.4531 73.8724 49.8937 69.3314 50.6686C70.1044 46.137 70.5469 44.6972 70.5469 42.4219C70.5469 36.318 67.5989 31.1639 63.5156 29.2233ZM28.8485 46.6577C26.9388 38.7368 26.6653 30.6473 26.6529 30.2719L26.5465 26.5467L30.2716 26.6531C30.6471 26.6655 38.7368 26.9388 46.6575 28.8487C49.1604 25.312 52.5567 22.7156 56.4841 21.7549V0H28.3594V3.51562C28.3594 17.0838 17.3182 28.3594 3.75 28.3594H0V56.4844H21.7547C22.7156 52.5567 25.312 49.1604 28.8485 46.6577Z" fill="white"/>
<path d="M91.1512 73.3423C93.0609 81.2632 93.3345 89.3527 93.3469 89.7281L93.4533 93.4533L89.7281 93.3469C89.3527 93.3345 81.263 93.0612 73.3423 91.1512C70.8394 94.688 67.443 97.2844 63.5156 98.2451V120H91.6406V116.484C91.6406 102.916 102.916 91.6406 116.484 91.6406H120V63.5156H98.2453C97.2841 67.4433 94.6877 70.8396 91.1512 73.3423Z" fill="white"/>
<path d="M98.6719 116.484V120H120V98.6719H116.484C106.792 98.6719 98.6719 106.792 98.6719 116.484ZM21.3281 3.51562V0H0V21.3281H3.75C13.4421 21.3281 21.3281 13.2077 21.3281 3.51562ZM29.2233 56.4844H56.4844V29.2233C52.4011 31.1639 49.4531 36.318 49.4531 42.4219C49.4531 44.6951 49.8937 46.1276 50.6686 50.6686C46.137 49.8952 44.6977 49.4531 42.4219 49.4531C36.318 49.4531 31.1639 52.4011 29.2233 56.4844ZM91.6406 3.51562V0H63.5156V21.7547C67.4433 22.7156 70.8396 25.312 73.3423 28.8485C81.2632 26.9388 89.3527 26.6653 89.7281 26.6529L93.4533 26.5465L93.3469 30.2716C93.3344 30.6471 93.0612 38.7368 91.1512 46.6575C94.688 49.1604 97.2844 52.5567 98.2451 56.4841H120V28.3594H116.484C102.916 28.3594 91.6406 17.0838 91.6406 3.51562Z" fill="white"/>
<path d="M98.6719 3.51562C98.6719 13.2077 106.792 21.3281 116.484 21.3281H120V0H98.6719V3.51562ZM28.3594 116.484V120H56.4844V98.2453C52.5567 97.2844 49.1604 94.688 46.6577 91.1515C38.7368 93.0612 30.6473 93.3347 30.2719 93.3471L26.5467 93.4535L26.6531 89.7284C26.6655 89.3529 26.9388 81.2632 28.8487 73.3425C25.312 70.8396 22.7156 67.4433 21.7547 63.5156H0V91.6406H3.75C17.3182 91.6406 28.3594 102.916 28.3594 116.484ZM56.4844 90.7767V63.5156H29.2233C31.1639 67.5989 36.318 70.5469 42.4219 70.5469C44.6955 70.5469 46.1276 70.1062 50.6686 69.3314C49.8956 73.863 49.4531 75.3023 49.4531 77.5781C49.4531 83.682 52.4011 88.8361 56.4844 90.7767Z" fill="white"/>
<path d="M35.3318 76.483C34.5825 80.009 34.1646 83.5143 33.9384 86.0617C36.4859 85.8356 39.9912 85.4177 43.5171 84.6684C42.8494 82.4418 42.4219 80.0772 42.4219 77.5783C39.923 77.5783 37.5584 77.1508 35.3318 76.483ZM43.5171 35.332C39.9912 34.5827 36.4859 34.1648 33.9384 33.9386C34.1646 36.486 34.583 39.9909 35.3318 43.5173C37.5584 42.8495 39.923 42.422 42.4219 42.422C42.4219 39.9231 42.8494 37.5585 43.5171 35.332ZM21.3281 116.485C21.3281 106.792 13.4421 98.672 3.75 98.672H0V120H21.3281V116.485Z" fill="white"/>
</svg>
